<?xml version="1.0" encoding="UTF-8"?>
<!-- Created with Inkscape (http://www.inkscape.org/) -->
<svg width="328.56mm" height="89.329002mm" version="1.1" viewBox="0 0 328.55997 89.329001" xmlns="http://www.w3.org/2000/svg" xmlns:cc="http://creativecommons.org/ns#" xmlns:dc="http://purl.org/dc/elements/1.1/" xmlns:rdf="http://www.w3.org/1999/02/22-rdf-syntax-ns#"><defs><linearGradient id="l" x1="241.28008" x2="239.75999" y1="225.96001" y2="225.96001" gradientTransform="translate(-124.31899,4.5037109e-4)" gradientUnits="userSpaceOnUse"><stop stop-color="#17679a" offset="0"/><stop stop-opacity=".97816592" offset="1"/></linearGradient><linearGradient id="j" x1="240.98361" x2="239.75999" y1="270.36002" y2="270.36002" gradientTransform="translate(-124.31899,4.5037109e-4)" gradientUnits="userSpaceOnUse"><stop stop-color="#17679a" offset="0"/><stop offset="1"/></linearGradient><linearGradient id="h" x1="267.8967" x2="266.40024" y1="270.36002" y2="270.36002" gradientTransform="translate(-124.31899,4.5037109e-4)" gradientUnits="userSpaceOnUse"><stop stop-color="#17679a" offset="0"/><stop offset="1"/></linearGradient><linearGradient id="f" x1="176.10963" x2="177.60001" y1="225.96001" y2="225.96001" gradientTransform="translate(-97.678998,1.6371094e-5)" gradientUnits="userSpaceOnUse"><stop stop-color="#17679a" offset="0"/><stop offset="1"/></linearGradient><linearGradient id="d" x1="175.748" x2="177.60049" y1="270.36044" y2="270.36044" gradientTransform="translate(-97.678998,1.6371094e-5)" gradientUnits="userSpaceOnUse"><stop stop-color="#17679a" offset="0"/><stop stop-color="#080000" offset="1"/></linearGradient><linearGradient id="b" x1="108.6932" x2="106.56" y1="270.36047" y2="270.36047" gradientTransform="translate(-97.678998,1.6371094e-5)" gradientUnits="userSpaceOnUse"><stop stop-color="#17679a" offset="0"/><stop offset="1"/></linearGradient><linearGradient id="i" x1="240.98361" x2="239.75999" y1="270.36002" y2="270.36002" gradientTransform="translate(44.400001,4.6737109e-4)" gradientUnits="userSpaceOnUse"><stop stop-color="#17679a" offset="0"/><stop offset="1"/></linearGradient><linearGradient id="k" x1="241.28008" x2="239.75999" y1="225.96001" y2="225.96001" gradientTransform="translate(44.400001,4.6737109e-4)" gradientUnits="userSpaceOnUse"><stop stop-color="#17679a" offset="0"/><stop stop-opacity=".97816592" offset="1"/></linearGradient><linearGradient id="g" x1="267.8967" x2="266.40024" y1="270.36002" y2="270.36002" gradientTransform="translate(53.28001,2.881378e-5)" gradientUnits="userSpaceOnUse"><stop stop-color="#17679a" offset="0"/><stop offset="1"/></linearGradient><linearGradient id="c" x1="175.748" x2="177.60049" y1="270.36044" y2="270.36044" gradientTransform="translate(71.039994,3.3371094e-5)" gradientUnits="userSpaceOnUse"><stop stop-color="#17679a" offset="0"/><stop stop-color="#080000" offset="1"/></linearGradient><linearGradient id="e" x1="176.10963" x2="177.60001" y1="225.96001" y2="225.96001" gradientTransform="translate(71.039994,3.3371094e-5)" gradientUnits="userSpaceOnUse"><stop stop-color="#17679a" offset="0"/><stop offset="1"/></linearGradient><linearGradient id="a" x1="108.6932" x2="106.56" y1="270.36047" y2="270.36047" gradientTransform="translate(71.039994,3.3371094e-5)" gradientUnits="userSpaceOnUse"><stop stop-color="#17679a" offset="0"/><stop offset="1"/></linearGradient></defs><metadata><rdf:RDF><cc:Work rdf:about=""><dc:format>image/svg+xml</dc:format><dc:type rdf:resource="http://purl.org/dc/dcmitype/StillImage"/><dc:title/></cc:Work></rdf:RDF></metadata><g transform="translate(0,-207.67102)"><path d="m26.641002 234.84002 8.88-8.87999v62.15999l-8.88 8.88c0.15519-20.52298 0.0308-41.48177 0-62.16z" fill="#17679a" stroke-width=".0721404"/><path d="m53.281002 225.96002 8.88 8.88v62.16l-8.88-8.88z" fill="#17679a" stroke-width=".0721404"/><path d="m8.8810019 261.48047 8.8800001-4.4e-4v8.88043l-8.8800001 1e-5z" fill="url(#b)" opacity=".5"/><path d="m79.921182 225.95974-1.8e-4 8.88028h-8.88037z" fill="url(#f)" opacity=".5" stroke-width=".0733001"/><g fill="#17679a"><path d="m115.441 225.96045v37.00001s1.5e-4 7.4 0 7.4l-8.88-7.4v-29.60001z" stroke-width=".06838753"/><path d="m133.2008 225.96045 8.8802 7.39994 2.4e-4 37.00007s-8.88102-8.88043-8.88124-8.88044z" stroke-width=".06838753"/><path d="m0 225.96002 8.8810019 7.4v37.00001l-8.8800019-7.4z" stroke-width=".06838761"/></g><g stroke-width=".07330011"><path d="m79.921502 270.36047h-8.8805v-8.88043h8.88z" fill="url(#d)" opacity=".5"/><path d="m142.081 261.48047h8.88l-8.88 8.88043z" fill="url(#h)" opacity=".5"/><path d="m115.44141 225.96047 8.87915-2.9e-4 4.5e-4 8.88028h-8.88001z" fill="url(#l)" opacity=".5"/></g><path d="m79.921002 225.96002 8.88 7.4v29.60001l-8.88 7.4z" fill="#17679a" stroke-width=".06838734"/><path d="m115.441 261.48046h8.88l-8.88 8.88001s-1.5e-4 -8.88001 0-8.88001z" fill="url(#j)" opacity=".5" stroke-width=".07330011"/><g fill="none" stroke="#0f0" stroke-width=".75"><path d="m8.8810018 261.48047h17.7599992"/><path d="m62.161 261.48047h17.76"/><path d="m115.441 261.48047h17.76"/></g><path d="m186.48 234.84002 8.88-8.87999v62.15999l-8.88 8.88c0.15519-20.52298 0.0308-41.48177 0-62.16z" fill="#17679a" stroke-width=".0721404"/><path d="m213.12 225.96002 8.88 8.88v62.16l-8.88-8.88z" fill="#17679a" stroke-width=".0721404"/><path d="m177.59999 261.48047 8.88-5.3e-4v8.88043l-8.88 1e-5z" fill="url(#a)" opacity=".5"/><path d="m248.64017 225.95974-1.8e-4 8.88028h-8.88037z" fill="url(#e)" opacity=".5" stroke-width=".07330011"/><g fill="#17679a"><path d="m284.15999 225.96045v37.00001s1.5e-4 7.4 0 7.4l-8.88-7.4v-29.60001z" stroke-width=".06838753"/><path d="m310.79999 225.96002 8.8802 7.39994 2.4e-4 37.00007s-8.88022-8.88-8.88044-8.88001z" stroke-width=".06838753"/><path d="m168.71899 225.96002 8.881 7.4v37.00001l-8.88-7.4z" stroke-width=".06838761"/></g><g stroke-width=".07330012"><path d="m248.64049 270.36047h-8.8805v-8.88043h8.88z" fill="url(#c)" opacity=".5"/><path d="m319.67999 261.48002h8.88l-8.88 8.88043z" fill="url(#g)" opacity=".5"/><path d="m284.1604 225.96047 17.75959-4.4e-4v8.87999l-17.75992 4.4e-4z" fill="url(#k)" opacity=".5"/></g><path d="m248.63999 225.96002 8.88 7.4v29.60001l-8.88 7.4z" fill="#17679a" stroke-width=".06838734"/><path d="m284.15999 261.48046 17.76-4.4e-4 -8.88 8.88-8.88 4.5e-4s-1.5e-4 -8.88001 0-8.88001z" fill="url(#i)" opacity=".5" stroke-width=".07330012"/><g fill="none"><path d="m177.59999 261.48047h8.88001" stroke="#f00" stroke-width=".53033024"/><path d="m222 261.48002 26.63999 4.5e-4" stroke="#de0000" stroke-width=".75"/><path d="m284.15999 261.48047 26.64-4.5e-4" stroke="#ec0000" stroke-width=".75"/></g><text x="57.746002" y="215.60881" fill="#000000" font-family="sans-serif" font-size="10.58333302px" letter-spacing="0px" stroke-width=".26458332" word-spacing="0px" style="line-height:1.25" xml:space="preserve"><tspan x="57.746002" y="215.60881" fill="#00ff00" font-family="Roboto" stroke-width=".26458332">Good</tspan></text><text x="234.13791" y="217.08005" fill="#ff0000" font-family="sans-serif" font-size="10.58333302px" letter-spacing="0px" stroke-width=".26458332" word-spacing="0px" style="line-height:1.25" xml:space="preserve"><tspan x="234.13791" y="217.08005" fill="#ff0000" font-family="Roboto" stroke-width=".26458332">Bad</tspan></text><g fill="#000000" font-family="sans-serif" font-size="10.58333302px" letter-spacing="0px" stroke-width=".26458332" word-spacing="0px"><text x="14.452697" y="251.92255" style="line-height:1.25" xml:space="preserve"><tspan x="14.452697" y="251.92255" fill="#00ff00" font-family="Roboto" stroke-width=".26458332">2</tspan></text><text x="67.435196" y="252.0713" style="line-height:1.25" xml:space="preserve"><tspan x="67.435196" y="252.0713" fill="#00ff00" font-family="Roboto" stroke-width=".26458332">2</tspan></text><text x="121.0127" y="251.92255" style="line-height:1.25" xml:space="preserve"><tspan x="121.0127" y="251.92255" fill="#00ff00" font-family="Roboto" stroke-width=".26458332">2</tspan></text></g><g fill="#ff0000" font-family="sans-serif" font-size="10.58333302px" letter-spacing="0px" stroke-width=".26458332" word-spacing="0px"><text x="179.09569" y="251.39066" style="line-height:1.25" xml:space="preserve"><tspan x="179.09569" y="251.39066" fill="#ff0000" font-family="Roboto" stroke-width=".26458332">1</tspan></text><text x="232.37569" y="251.39066" style="line-height:1.25" xml:space="preserve"><tspan x="232.37569" y="251.39066" fill="#ff0000" font-family="Roboto" stroke-width=".26458332">3</tspan></text><text x="294.53571" y="251.39066" style="line-height:1.25" xml:space="preserve"><tspan x="294.53571" y="251.39066" fill="#ff0000" font-family="Roboto" stroke-width=".26458332">3</tspan></text></g></g></svg>
