<?xml version="1.0" encoding="UTF-8"?>
<!-- Created with Inkscape (http://www.inkscape.org/) -->
<svg width="319.67999mm" height="88.606003mm" version="1.1" viewBox="0 0 319.67996 88.606001" xmlns="http://www.w3.org/2000/svg" xmlns:cc="http://creativecommons.org/ns#" xmlns:dc="http://purl.org/dc/elements/1.1/" xmlns:rdf="http://www.w3.org/1999/02/22-rdf-syntax-ns#"><defs><linearGradient id="f" x1="176.10963" x2="177.60001" y1="225.96001" y2="225.96001" gradientTransform="translate(-97.413833,1.6371094e-5)" gradientUnits="userSpaceOnUse"><stop stop-color="#17679a" offset="0"/><stop offset="1"/></linearGradient><linearGradient id="d" x1="175.748" x2="177.60049" y1="270.36044" y2="270.36044" gradientTransform="translate(-97.413833,1.6371094e-5)" gradientUnits="userSpaceOnUse"><stop stop-color="#17679a" offset="0"/><stop stop-color="#080000" offset="1"/></linearGradient><linearGradient id="b" x1="108.6932" x2="106.56" y1="270.36047" y2="270.36047" gradientTransform="translate(-97.413833,1.6371094e-5)" gradientUnits="userSpaceOnUse"><stop stop-color="#17679a" offset="0"/><stop offset="1"/></linearGradient><linearGradient id="c" x1="175.748" x2="177.60049" y1="270.36044" y2="270.36044" gradientTransform="translate(71.040985,2.668988e-5)" gradientUnits="userSpaceOnUse"><stop stop-color="#17679a" offset="0"/><stop stop-color="#080000" offset="1"/></linearGradient><linearGradient id="e" x1="176.10963" x2="177.60001" y1="225.96001" y2="225.96001" gradientTransform="translate(71.040985,2.668988e-5)" gradientUnits="userSpaceOnUse"><stop stop-color="#17679a" offset="0"/><stop offset="1"/></linearGradient><linearGradient id="a" x1="108.6932" x2="106.56" y1="270.36047" y2="270.36047" gradientTransform="translate(71.040985,2.668988e-5)" gradientUnits="userSpaceOnUse"><stop stop-color="#17679a" offset="0"/><stop offset="1"/></linearGradient><linearGradient id="j" x1="240.98361" x2="239.75999" y1="270.36002" y2="270.36002" gradientTransform="translate(-124.32007,1.870262e-5)" gradientUnits="userSpaceOnUse"><stop stop-color="#17679a" offset="0"/><stop offset="1"/></linearGradient><linearGradient id="l" x1="241.28008" x2="239.75999" y1="225.96001" y2="225.96001" gradientTransform="translate(-124.32007,1.870262e-5)" gradientUnits="userSpaceOnUse"><stop stop-color="#17679a" offset="0"/><stop stop-opacity=".97816592" offset="1"/></linearGradient><linearGradient id="h" x1="267.8967" x2="266.40024" y1="270.36002" y2="270.36002" gradientTransform="translate(-124.32007,1.870262e-5)" gradientUnits="userSpaceOnUse"><stop stop-color="#17679a" offset="0"/><stop offset="1"/></linearGradient><linearGradient id="i" x1="240.98361" x2="239.75999" y1="270.36002" y2="270.36002" gradientTransform="translate(44.399919,2.330262e-5)" gradientUnits="userSpaceOnUse"><stop stop-color="#17679a" offset="0"/><stop offset="1"/></linearGradient><linearGradient id="k" x1="241.28008" x2="239.75999" y1="225.96001" y2="225.96001" gradientTransform="translate(44.399919,2.330262e-5)" gradientUnits="userSpaceOnUse"><stop stop-color="#17679a" offset="0"/><stop stop-opacity=".97816592" offset="1"/></linearGradient><linearGradient id="g" x1="267.8967" x2="266.40024" y1="270.36002" y2="270.36002" gradientTransform="translate(44.399919,2.330262e-5)" gradientUnits="userSpaceOnUse"><stop stop-color="#17679a" offset="0"/><stop offset="1"/></linearGradient></defs><metadata><rdf:RDF><cc:Work rdf:about=""><dc:format>image/svg+xml</dc:format><dc:type rdf:resource="http://purl.org/dc/dcmitype/StillImage"/><dc:title/></cc:Work></rdf:RDF></metadata><g transform="translate(0,-208.39403)" stroke-width=".75"><path d="m26.906167 234.84002 8.88-8.87999v62.15999l-8.88 8.88c0.15519-20.52298 0.0308-41.48177 0-62.16z" fill="#17679a"/><path d="m53.546167 225.96002 8.88 8.88v62.16l-8.88-8.88z" fill="#17679a"/><path d="m9.146167 261.48047 8.88-4.4e-4v8.88043l-8.88 1e-5z" fill="url(#b)" opacity=".5"/><path d="m80.186347 225.95974-1.8e-4 8.88028h-8.88037z" fill="url(#f)" opacity=".5"/><path d="m0.2651651 225.96002 8.8799998 8.88001 1e-3 35.52-8.8800019-7.4z" fill="#17679a"/><path d="m80.186667 270.36047h-8.8805v-8.88043h8.88z" fill="url(#d)" opacity=".5"/><g><path d="m80.186167 225.96002 8.88 7.4v29.60001l-8.88 7.4z" fill="#17679a"/><text x="60.151867" y="216.51215" fill="#000000" font-family="sans-serif" font-size="10.58333302px" letter-spacing="0px" word-spacing="0px" style="line-height:1.25" xml:space="preserve"><tspan x="60.151867" y="216.51215" fill="#00ff00" font-family="Roboto" stroke-width=".75">Good</tspan></text><text x="231.97093" y="216.3317" fill="#ff0000" font-family="sans-serif" font-size="10.58333302px" letter-spacing="0px" word-spacing="0px" style="line-height:1.25" xml:space="preserve"><tspan x="231.97093" y="216.3317" fill="#ff0000" font-family="Roboto" stroke-width=".75">Bad</tspan></text><path d="m195.361 234.84003 8.88-8.87999v62.15999l-8.88 8.88c0.15519-20.52298 0.0308-41.48177 0-62.16z" fill="#17679a"/><path d="m222 234.84003 8.88-8.88 1e-3 71.04-8.88-8.88z" fill="#17679a"/></g><path d="m177.601 261.48048 8.88-5.3e-4v8.88043l-8.88 1e-5z" fill="url(#a)" opacity=".5"/><path d="m248.64118 225.95975-1.8e-4 8.88028h-8.88101z" fill="url(#e)" opacity=".5"/><path d="m168.72 234.84003 8.88-8.88 1e-3 44.40001-8.881-8.88001z" fill="#17679a"/><path d="m248.6415 270.36048c-2e-3 -4.5e-4 -8.88151-8.88045-8.8805-8.88043h8.88z" fill="url(#c)" opacity=".5"/><path d="m248.641 225.96003 8.879 8.88v26.64l-8.879 8.88001z" fill="#17679a"/><g fill="none"><path d="m0.2651651 225.96002 26.6399989 26.64001" stroke="#0f0"/><path d="m35.785165 225.96002-26.6400001 26.64001" stroke="#00f400"/><path d="m53.545162 225.96002 26.640001 26.64001" stroke="#00eb00"/><path d="m80.185163 225.96003-17.759999 17.76" stroke="#00eb00"/><path d="m204.24 225.96003-26.64 26.63999" stroke="#f00"/></g><path d="m115.43992 225.96002c8e-5 1e-5 0 44.40001 0 44.40001l-8.87992-8.88v-26.64z" enable-background="new" fill="#17679a" filter="url(#filter16858)"/><path d="m133.19972 225.96002 8.88028 8.88001 1.6e-4 35.52s-8.87994-8.87999-8.88016-8.88z" enable-background="new" fill="#17679a" filter="url(#filter16858)"/><path d="m142.07992 261.48004h8.88l-8.88 8.88043z" enable-background="new" fill="url(#h)" filter="url(#filter16858)" opacity=".5"/><path d="m115.44033 225.96004 8.87915-2.9e-4 5.3e-4 8.88028h-8.88001z" enable-background="new" fill="url(#l)" filter="url(#filter16858)" opacity=".5"/><path d="m115.43992 261.48003h8.88l-8.88 8.88001s-1.5e-4 -8.88001 0-8.88001z" enable-background="new" fill="url(#j)" filter="url(#filter16858)" opacity=".5"/><path d="m115.44 270.36003 17.76-17.76" fill="none" stroke="#00fe00"/><path d="m142.07999 270.36003-26.63999-26.64" fill="none" stroke="#00fe00"/><path d="m284.15991 225.96002c8e-5 1e-5 0 44.40001 0 44.40001l-8.87992-8.88v-26.64z" enable-background="new" fill="#17679a" filter="url(#filter16858)"/><path d="m301.91999 234.84003 8.88-8.88v44.4s-8.87978 1e-5 -8.88 0z" enable-background="new" fill="#17679a" filter="url(#filter16858)"/><path d="m310.79991 261.48004h8.88l-8.88 8.88043z" enable-background="new" fill="url(#g)" filter="url(#filter16858)" opacity=".5"/><path d="m284.16032 225.96004 8.87915-2.9e-4c2.7e-4 1.4e-4 5.2e-4 8.88028 5.2e-4 8.88028h-8.88z" enable-background="new" fill="url(#k)" filter="url(#filter16858)" opacity=".5"/><path d="m284.15991 261.48003h8.88008s-8.88 8.88-8.88008 8.88001c0 0-1.5e-4 -8.88001 0-8.88001z" enable-background="new" fill="url(#i)" filter="url(#filter16858)" opacity=".5"/><g fill="none"><path d="m248.63999 270.36003-17.76-17.76" stroke="#f00"/><path d="m284.15998 270.36003 17.76-17.76" stroke="#f00"/><path d="m310.79998 225.96003-26.64 26.64" stroke="#da0000"/><path d="m248.63999 225.96003-17.76 17.76" stroke="#f00"/></g></g></svg>
