<?xml version="1.0" encoding="UTF-8"?>
<!-- Created with Inkscape (http://www.inkscape.org/) -->
<svg width="373mm" height="107mm" version="1.1" viewBox="0 0 373 107" xmlns="http://www.w3.org/2000/svg" xmlns:cc="http://creativecommons.org/ns#" xmlns:dc="http://purl.org/dc/elements/1.1/" xmlns:rdf="http://www.w3.org/1999/02/22-rdf-syntax-ns#"><defs><linearGradient id="g" x1="241" x2="240" y1="226" y2="226" gradientUnits="userSpaceOnUse"><stop stop-color="#17679a" offset="0"/><stop stop-opacity=".978" offset="1"/></linearGradient><linearGradient id="f" x1="241" x2="240" y1="270" y2="270" gradientTransform="translate(97.7 5.62e-6)" gradientUnits="userSpaceOnUse"><stop stop-color="#17679a" offset="0"/><stop offset="1"/></linearGradient><linearGradient id="e" x1="268" x2="266" y1="270" y2="270" gradientUnits="userSpaceOnUse"><stop stop-color="#17679a" offset="0"/><stop offset="1"/></linearGradient><linearGradient id="d" x1="176" x2="178" y1="226" y2="226" gradientTransform="translate(97.7 5.62e-6)" gradientUnits="userSpaceOnUse"><stop stop-color="#17679a" offset="0"/><stop offset="1"/></linearGradient><linearGradient id="c" x1="176" x2="178" y1="270" y2="270" gradientUnits="userSpaceOnUse"><stop stop-color="#17679a" offset="0"/><stop stop-color="#080000" offset="1"/></linearGradient><linearGradient id="b" x1="109" x2="107" y1="270" y2="270" gradientTransform="translate(97.7 5.62e-6)" gradientUnits="userSpaceOnUse"><stop stop-color="#17679a" offset="0"/><stop offset="1"/></linearGradient><linearGradient id="a" x1="-1.34e-16" x2="0" y1="202" y2="199" gradientUnits="userSpaceOnUse"><stop stop-color="#17679a" offset="0"/><stop stop-color="#030000" offset="1"/></linearGradient></defs><metadata><rdf:RDF><cc:Work rdf:about=""><dc:format>image/svg+xml</dc:format><dc:type rdf:resource="http://purl.org/dc/dcmitype/StillImage"/><dc:title/></cc:Work></rdf:RDF></metadata><g transform="translate(0 -190)"><g transform="translate(97.7 5.62e-6)" fill="#17679a"><g stroke-width=".0721"><path d="m124 235 8.88-8.88v62.2l-8.88 8.88c0.155-20.5 0.0308-41.5 0-62.2z"/><path d="m151 226 8.88 8.88v62.2l-8.88-8.88z"/><path d="m0 261h44.7l8.6 8.88-53.3-1e-5z"/></g><path d="m71 190 8.88 8.88 3e-6 71h-8.88z" stroke-width=".0695"/></g><path d="m204 261 8.88-4.4e-4v8.88l-8.88 1e-5z" fill="url(#b)" opacity=".5"/><path d="m275 226-1.8e-4 8.88h-8.88z" fill="url(#d)" opacity=".5" stroke-width=".0733"/><g transform="translate(97.7 5.62e-6)" fill="#17679a"><path d="m204 244h8.88l1.2e-4 26.6h-8.88z" stroke-width=".0656"/><path d="m240 226v44.4l-8.88-8.88v-26.6z" stroke-width=".0684"/><path d="m258 226 8.88 8.88 2.4e-4 35.5s-8.88-8.88-8.88-8.88z" stroke-width=".0684"/><path d="m0 226h35.5l-8.88 8.88h-26.6z" stroke-width=".072"/><path d="m204 226 8.88 3.7e-4v8.88z" stroke-width=".0733"/><path d="m8.88 190 44.4-0.031-9.96 8.88s-43.3 0.116-43.3 0.031z" stroke-width=".0721"/><path d="m97.7 226 8.88 8.88 1e-5 35.5-8.88-8.88z" stroke-width=".0684"/></g><g transform="translate(97.7 5.62e-6)"><g stroke-width=".0733"><path d="m178 270h-8.88v-8.88h8.88z" fill="url(#c)" opacity=".5"/><path d="m266 261h8.88l-8.88 8.88z" fill="url(#e)" opacity=".5"/><path d="m240 226 8.88-2.9e-4 4.5e-4 8.88h-8.88z" fill="url(#g)" opacity=".5"/></g><path d="m8.88 199 4.27e-4 8.88-8.88 8.88v-17.8z" fill="url(#a)" opacity=".5"/></g><path d="m275 226 8.88 8.88v26.6l-8.88 8.88z" fill="#17679a" stroke-width=".0684"/><path d="m337 261h8.88l-8.88 8.88s-1.5e-4 -8.88 0-8.88z" fill="url(#f)" opacity=".5" stroke-width=".0733"/><ellipse cx="39.7" cy="230" rx="35" ry="34.8" fill="#254958" stroke-width=".0405"/><path d="m5.43 230c0.0347-19.1 15.4-34.5 34.5-34.6 19.1-0.0177 34.6 15.3 34.6 34.5 0.0068 19.2-15.5 34.6-34.6 34.6-19.2-0.00506-34.5-15.5-34.6-34.5m-5.43-0.00871c0.0498 22 17.7 40 40 40 22.2 9.7e-4 40-17.9 40-40-9.88e-4 -22.1-17.8-40-40-40-22.3 0.00352-39.9 18-40 40" fill="#214e6a" stroke-width=".0521"/><path d="m23 213 23.3 4.65 11.1-5.72 0.489 20 2.54 8.37-12.8 8.9-3.38 0.979-9.39-0.0489-8.66-3.52-7.39-7.34 4.55-17.5z" fill="#f2f2f2" stroke="#000" stroke-width=".039px"/><g transform="matrix(.0521 0 0 -.0521 0 270)" fill="#17679a"><path d="m562 704c1.8-9.17 3.44-17.3 4.97-25.5 0.442-2.36 2.05-3.16 4.03-3.87 22.4-7.99 44.7-16.1 67.1-24 2.41-0.85 4.14-1.99 5.63-4.02 4.26-5.79 8.69-11.4 13.1-17.1 1.27-1.64 2.65-3.18 3.97-4.77 0.37 0.144 0.741 0.288 1.11 0.431 0.452 20 0.905 40.1 1.36 60.3-34 6.23-67.2 12.5-101 18.5m312-78.8c0.408-0.146 0.816-0.291 1.22-0.436 1.25 1.51 2.54 3 3.73 4.55 4.51 5.86 8.91 11.8 13.5 17.6 1.17 1.46 2.84 2.84 4.57 3.47 18 6.56 36.1 13 54.1 19.4 5.63 2.01 11.2 4.05 17 6.14 1.92 9.23 4.19 18.2 5.31 28.2-34.1-6.28-67.4-12.4-101-18.6 0.476-20.6 0.936-40.4 1.4-60.3m-35.1 146c3.15-1.35 5.99-2.32 8.58-3.74 3.42-1.87 6.61-1.79 10.3-0.551 13.8 4.68 27.7 9.07 41.6 13.6 10.5 3.38 20.7 8.03 31.4 9.71s21.9 0.363 32.9 0.358c0.6-6e-4 1.2-0.0396 1.8-3e-3 1.5 0.0918 3 0.217 5.21 0.382-1 1.56-1.57 2.56-2.25 3.47-3.21 4.34-6.48 8.64-9.67 13-1.4 1.91-2.19 4.34-0.251 5.96 1.26 1.06 3.63 1.26 5.42 1.09 2.08-0.203 4.09-1.24 6.13-1.91-2.12 2.9-4.73 4.98-7.35 7.05-2.98 2.36-5.99 4.67-8.94 7.08-1.87 1.52-2.6 3.55-1.93 5.9 0.717 2.49 2.71 3.32 5.06 3.45 1.6 0.0858 3.2 0.0378 4.8 0.0396 3.07 4e-3 6.14 2e-3 9.2 2e-3 2.91-0.286 1.11 0.915 0.322 1.4-3.34 2.01-6.49 4.52-10.1 5.93-8.17 3.22-16.5 5.96-24.9 8.77-1.66 0.561-3.53 0.936-5.25 0.801-10.8-0.838-21.5-1.75-32.3-2.88-2.04-0.215-4.36-1.06-5.89-2.37-16.2-14-32.3-28-48.4-42.2-1.38-1.21-2.67-3.19-2.88-4.95-1.11-9.52-1.87-19.1-2.81-29.3m-274 20.7c-1.72-1.76-1.72-1.15 0.535-1.35 1.93 0 3.86-8e-3 5.79 1e-3 9.2 0.0492 18.4 0.254 27.6 0.0786 3.53-0.0672 7.19-0.543 10.5-1.61 22.8-7.25 45.6-14.7 68.4-22.1 2.01-0.646 4.45-1.4 6.3-0.842 4.13 1.25 8.02 3.3 12.3 5.14-0.918 9.38-1.94 18.3-2.59 27.3-0.25 3.47-1.53 5.84-4.15 8.1-15.2 13-30.3 26.1-45.2 39.4-3.21 2.86-6.62 4.15-10.7 4.47-9.56 0.748-19.1 1.69-28.7 2.36-2.12 0.149-4.41-0.161-6.43-0.833-8.15-2.71-16.3-5.57-24.3-8.51-3.86-1.4-7.08-3.84-9.99-6.92 4.56-0.58 8.9-0.562 13.2-0.588 2.54-0.0144 4.84-0.594 5.73-3.37 0.846-2.63-0.175-4.7-2.23-6.33-4.07-3.23-8.19-6.41-12.2-9.65-1.39-1.11-2.67-2.34-4.01-3.52 2.8 0.0906 5.01 1.2 7.31 1.46 1.55 0.173 3.85-0.388 4.68-1.48 0.812-1.08 0.546-3.35 0.0828-4.9-0.434-1.45-1.72-2.66-2.68-3.94-3.09-4.15-6.2-8.28-9.3-12.4m393 223c31.4-22.1 62.3-43.7 93.4-65.6 0.624 1.53 1.11 2.41 1.35 3.35 5.43 21.5 10.9 43 16.2 64.5 0.506 2.05 0.528 4.35 0.214 6.45-2.51 16.8-5.13 33.6-7.78 50.4-0.2 1.27-0.817 2.47-1.39 4.15-34-21.1-67.6-41.9-102-63.3m-475-65.7c31.3 22 62.1 43.6 93.6 65.7-34.6 21.4-68.3 42.3-102 63.5-0.377-1.62-0.598-2.37-0.72-3.14-2.71-17-5.51-33.9-8.03-50.9-0.424-2.86-0.0798-6 0.615-8.84 4.89-20 9.96-39.9 15-59.9 0.474-1.88 1.11-3.71 1.94-6.43m560-195c-21.2-3.9-42-8.14-62.8-13.5 3.31-7.83 6.39-14.8 9.17-21.8 1.33-3.37 3.37-5.52 6.68-7.14 19-9.3 38-18.8 56.9-28.3 1.43-0.713 2.9-1.37 4.25-2.21 2.14-1.32 5.63-6.46 0.637-5.52-5.78 0.929-11.6 1.85-17.9 2.87 0.566-2.59 0.897-4.33 1.33-6.05 4.26-16.9 8.52-33.7 12.8-50.6 0.645-2.53 1.73-5.05-1.32-7.25-1.51 0.634-3.13 1.32-5.15 2.17 0.109-2.2 0.12-3.8 0.277-5.38 1.35-13.5 2.75-27 4.09-40.6 0.262-2.65 1.3-5.53-1.68-7.95-2.21 1.3-4.36 2.56-6.55 3.84-3.38-8.99-18.5-75.5-17.9-80.8 3.72 10.5 12.1 15.3 19.3 21.2 15.4 12.7 31 25.2 46.4 38.1 3.31 2.76 6.32 6.13 8.67 9.75 10.2 15.8 19.9 31.9 30.4 47.5 4.04 6.02 4.12 11.9 3.29 18.3-1.4-1.34-2.6-2.5-3.81-3.66-1.12 1.48-2.33 2.9-3.33 4.46-0.524 0.816-0.683 1.87-1.01 2.81-6.42 18.7-13 37.4-19.2 56.2-2.03 6.19-2.87 11-10.7 12.2-1.21 0.425-2.4 0-3.13 3.22 6.47 0.651 12.6-3.19 19.4-2.1-18.2 12.2-36.4 24.3-55.3 36.9 3.24 3.74 7.89 5.12 11.8 7.51 4.16 2.57 8.47 4.89 12.7 7.31-2.9 0.978-5.41 0.843-7.93 0.688-11.6-0.717-23.2-1.47-34.7-2.12-1.41-0.0786-2.84 0.363-4.26 0.562-0.164 0.463-0.328 0.926-0.492 1.39l9.03 8.04m-599-59.1c-2.09-1.66-2.49-1.31-4.49-2.26-4.6-1.45-7.42-4.35-8.96-9.03-6.69-20.3-13.8-40.5-20.7-60.7-0.454-1.32-0.806-2.7-1.44-3.93-1.39-2.68-2.53-2.65-4.71-4e-3 -0.346 0.421-0.633 0.89-1.04 1.47-1.99-10.1-2-10.2 3.05-18.1 10.3-16.2 20.5-32.5 30.8-48.6 1.8-2.8 4.11-5.43 6.67-7.55 17.6-14.5 35.2-28.9 52.9-43.3 5.3-4.3 10.7-8.42 13.3-15.1 0.253-0.655 0.981-1.13 2.4-2.68-6.55 28-12.8 54.7-19.1 81.8-2.93-1.61-5.2-2.86-8.77-4.82 0.244 19.4 3.49 37 4.49 55.1-1.95-1.01-3.62-1.87-5.29-2.74-3.14 2.81-1.65 5.78-0.957 8.56 4.28 17.1 8.65 34.1 13 51.1 0.31 1.23 0.381 2.51 0.616 4.13-1.76-0.158-2.94-0.176-4.09-0.383-3.74-0.673-7.44-1.58-11.2-2.03-1.06-0.126-5.24-0.876-5.48-0.0546-0.279 0.947 2.84 4.29 3.71 5.1 1.13 1.04 2.76 1.57 4.19 2.28 19.1 9.54 38.3 19 57.4 28.7 2 1.01 4.25 2.61 5.15 4.52 3.66 7.74 6.85 15.7 10.5 24.3-21.2 4.84-41.9 9.57-63.1 14.4 2.13-4.66 7.57-5.45 9.1-10.9-16-0.55-31.4 2.12-47 1.51 4.03-2.9 8.27-5.08 12.3-7.59 3.88-2.42 8.6-3.72 11.8-7.56l-55.5-37c0.197-0.402 0.396-0.804 0.593-1.21 3.27 0.724 6.52 1.74 9.83 2.09 3.26 0.34 6.12 1.13 10 0.394m124-200c0.532-2.01 0.759-3.32 1.22-4.55 7.59-20 15.3-39.9 22.8-60 1.08-2.88 2.87-4.53 5.45-5.94 19.3-10.6 38.6-21.1 57.7-31.9 4.35-2.45 8.76-3.45 13.7-3.61 18.8-0.6 37.6-1.52 56.3-2.14 17.6-0.581 35.2-1.62 52.8-1.24 31 0.681 61.9 2.24 92.9 3.61 3.07 0.137 6.37 1.02 9.06 2.47 19.9 10.7 39.6 21.8 59.4 32.6 2.98 1.63 4.87 3.68 6.08 6.91 7.35 19.7 14.9 39.2 22.4 58.8 0.541 1.42 0.927 2.9 1.76 5.56-2.93-1.36-4.77-2.46-6.76-3.07-1.35-0.413-2.9-0.145-4.37-0.182 0 1.31-0.315 2.72 0.072 3.91 0.864 2.65 2.09 5.18 3.15 7.77 1.56 3.82 3.09 7.65 4.64 11.5-2.19-0.708-3.59-1.99-5.06-3.19-1.43-1.17-2.92-2.25-5.59-4.29-0.453 5.45-0.778 9.36-1.16 13.9-1.55-2.83-2.72-4.96-4.57-8.33-1.78 2.94-3.01 4.63-3.9 6.49-6.94 14.4-13.8 28.8-20.7 43.3-1.23 2.6-2.79 4.65-5.24 6.3-17.4 11.7-34.8 23.6-52 35.5-2.72 1.89-5.26 4.3-7.26 6.94-17 22.5-33.8 45.1-50.7 67.7-1.11 1.49-2.37 2.87-4.25 5.15-0.917-4.07-1.6-6.94-2.2-9.82-0.421-2-0.582-4.7-2.98-5.9-3 0.6-3 3.69-3.72 5.41-0.558 1.34-1.03 2.71-1.76 4.65-2.57-5.18-4.75-9.58-7.13-14.4-6.67 4.47-9.22 11.7-15.1 16.6-1.5-5.87 0.179-11.7-2.43-16.6-0.512-1.09-1.39-0.166-1.54 0.0234-5.58 6.9-6.03 16.1-10.7 24-0.605-1.01-1.12-1.61-1.35-2.3-1.56-4.75-2.95-9.55-4.62-14.3-0.485-1.36-1.7-2.47-2.58-3.69-1.36 1-3.13 1.74-3.98 3.07-1.47 2.28-2.36 4.92-3.91 8.32-0.847-2.76-1.17-4.56-1.95-6.13-0.645-1.29-1.65-3.52-2.85-4.72-2.4 1.8-2.89 2.97-3.3 4.9-0.705 3.26-1.56 6.48-2.6 10.8-1.91-2.36-3.29-3.96-4.56-5.66-16.8-22.4-33.5-44.9-50.3-67.2-1.65-2.19-3.59-4.34-5.82-5.89-17.4-12.1-34.9-24-52.5-35.8-2.94-1.98-4.97-4.33-6.47-7.55-6.67-14.3-13.5-28.5-20.4-42.8-0.888-1.84-2.18-3.49-3.89-6.19-1.77 3.01-2.9 4.94-4.12 7.01-2-3.65 0.609-8.17-2.84-11.9-3 2.44-5.82 4.72-9.17 7.44 1.62-8.87 7.82-15.7 7.92-25.4-4.1 1.53-7.14 2.65-11 4.07m579 261c31.7 4.16 63.1 9.44 94.6 13.5 0.283-0.464 0.567-0.929 0.85-1.39-1.05-1.49-1.96-3.1-3.16-4.46-18.1-20.6-36.2-41.1-54.3-61.7-1.27-1.44-2.43-2.97-4.25-5.2 2.45-0.216 3.95-0.427 5.45-0.466 18.4-0.491 36.8-0.93 55.2-1.46 2.28-0.0654 4.54-0.602 7.62-1.03-2.62-6.07-6.91-9.78-10.2-14.2-3.37-4.47-7-8.74-10.5-13.1-3.52-4.36-7.03-8.72-10.6-13.1-3.51-4.36-7.03-8.72-10.5-13.1-3.52-4.36-7.04-8.72-10.5-13.1-3.49-4.34-6.97-8.69-11.2-14 2.54 0.328 3.99 0.378 5.37 0.713 14.8 3.59 29.5 7.22 44.3 10.8 1.94 0.477 3.87 1.12 5.84 1.34 1.04 0.114 2.16-0.529 3.24-0.831-0.343-1.21-0.369-2.69-1.1-3.59-1.25-1.53-2.93-2.7-4.45-4.01-73.6-63.6-147-127-221-191-4.67-4.05-9.57-6.74-15.4-8.58-43.1-13.6-86.1-27.4-129-41.1-2.8-0.888-5.83-1.3-8.78-1.43-25.8-1.16-51.6-1.95-77.3-3.35-22-1.2-44 0.708-66 1.36-16.2 0.479-32.4 1.26-48.6 2.01-2.55 0.118-5.18 0.474-7.61 1.24-44.2 14-88.4 28.2-133 42.1-4.55 1.44-8.07 3.93-11.6 6.99-26.9 23.4-53.8 46.6-80.8 69.9-47.5 41.1-95.1 82.2-143 123-1.7 1.47-4.96 2.75-3.72 5.46 1.52 3.33 4.64 0.973 6.9 0.44 15.4-3.62 30.7-7.44 46-11.2 1.45-0.354 2.96-0.51 5.85-0.995-21.6 27.3-42.9 53.1-63.7 79.3 0.241 0.498 0.483 0.995 0.724 1.49 2.44 0.328 4.87 0.878 7.32 0.95 18.2 0.532 36.4 0.966 54.6 1.45 1.53 0.0402 3.05 0.203 5.6 0.38-1.72 2.17-2.84 3.71-4.09 5.14-18 20.4-36 40.8-53.9 61.3-1.35 1.53-2.44 3.28-3.29 5.54 8.25 0.614 15.9-1.35 23.7-2.34 7.93-1 15.8-2.25 23.8-3.4 7.72-1.12 15.4-2.23 23.1-3.37 7.9-1.16 15.8-2.34 24.1-3.57 0.67 1.62 1.39 3 1.81 4.45 6.8 23.4 13.6 46.8 20.2 70.3 0.772 2.74 0.863 5.94 0.332 8.74-11.5 60.5-23 121-34.6 181-0.615 3.21-0.536 6.22 0.33 9.43 11.6 43.2 23.2 86.5 34.8 130 0.347 1.3 0.87 2.54 1.46 4.25 1.75-0.622 3.23-1.04 4.62-1.66 30.5-13.6 61-27.2 91.5-40.7 3.42-1.51 7.18-2.56 10.9-3.03 21.2-2.69 42.5-5.08 63.7-7.77 2.46-0.312 4.89-1.62 7.12-2.85 32.1-17.7 64.1-35.3 96.1-53.2 3.66-2.04 7.19-2.94 11.4-2.57 18.5 1.63 37.1 2.75 55.6 4.59 13.9 1.38 27.6-0.355 41.3-1.3 13.6-0.93 27.1-2.03 40.7-3.28 4.18-0.387 7.73 0.466 11.4 2.51 31.8 17.7 63.7 35.3 95.5 52.9 3.57 1.99 7.17 3.11 11.3 3.57 20.9 2.35 41.7 4.91 62.5 7.57 2.91 0.373 5.8 1.51 8.51 2.71 30.7 13.6 61.4 27.3 92 41 1.08 0.48 2.18 0.909 3.58 1.49 0.699-1.13 1.55-2 1.82-3.02 11.6-43.3 23.1-86.5 34.7-130 1.07-3.98 1.21-7.68 0.432-11.7-11.5-59.7-22.9-119-34.4-179-0.736-3.83-0.677-7.41 0.433-11.2 6.63-22.6 13.1-45.3 19.6-68 0.49-1.7 1.09-3.37 1.82-5.62"/><path d="m769 581c14.6 0 29.2-0.333 43.8 0.144 7.01 0.229 10.8-2.95 13.4-8.75 3.28-7.51 6.48-15.1 9.71-22.6 2.05-4.78 4.04-9.58 6.14-14.3 2-4.53 1.31-8.69-1.95-12.2-11.5-12.5-23-25.1-34.7-37.4-1.95-2.04-4.93-3.46-7.69-4.3-8.41-2.55-16.9-4.84-25.5-6.86-2.6-0.613-5.59-0.523-8.2 0.0978-8.36 1.99-16.6 4.43-24.9 6.59-3.61 0.938-6.55 2.75-9.08 5.49-10.8 11.8-21.7 23.5-32.6 35.2-3.96 4.25-5.02 8.72-2.56 14.2 5.13 11.5 9.94 23.1 15 34.7 0.787 1.82 1.91 3.49 2.9 5.21 1.99 3.46 4.95 4.79 8.97 4.78 12.6-0.048 25.2 0.162 37.8 0.259 3.2 0.0246 6.39 4e-3 9.59 4e-3v-0.303"/><g transform="matrix(.618 0 0 .619 767 113)"><path d="m0 0c2.63 0.986 5.45 1.96 8.2 3.09 44.6 18.5 89.3 36.9 134 55.4 199 82.6 399 165 598 248 6.32 2.62 10.1 6.34 12.7 12.7 25.6 62.6 51.6 125 77.5 187 75.1 181 150 362 225 544 2.62 6.31 2.81 11.7 0.151 18-30.6 73.5-61 147-91.5 221-70.5 170-141 340-211 511-2.82 6.83-6.89 10.5-13.5 13.2-37.6 15.3-75.1 31-113 46.6-206 85.4-412 171-618 256-6.07 2.52-11.1 2.39-17.1-0.122-43.3-18.2-86.7-36-130-54-200-82.9-400-166-600-248-7.42-3.06-11.7-7.37-14.7-14.7-19.7-48.4-39.8-96.7-59.8-145-60.4-146-121-292-181-438-20.4-49.2-40.7-98.5-61.3-148-2.49-5.95-2.86-11.1-0.079-17 4.25-9.03 7.76-18.4 11.6-27.6 47.4-114 94.9-229 142-343 50-121 99.9-241 150-362 2.38-5.78 5.9-9.01 11.5-11.3 22.3-8.93 44.4-18.2 66.5-27.4 130-53.8 260-108 390-161 92.3-38.2 185-76.5 277-115 2.46-1.02 4.96-1.92 7.77-3m1204 1059c-1.99-5.7-3.4-10.5-5.29-15.1-47.4-114-94.8-229-142-343-65.9-159-132-318-198-477-4.68-11.3-11.6-18.4-22.9-23.1-273-113-547-226-820-340-11.7-4.86-21.9-4.64-33.5 0.176l-819 339c-11.7 4.82-18.9 12-23.7 23.6-113 273-226 547-340 820-4.72 11.4-4.54 21.2 0.153 32.5 114 273 227 547 340 821 4.39 10.6 11 17.3 21.7 21.7 274 113 548 227 823 341 11.1 4.62 20.7 3.64 31.5-0.867 272-113 544-226 816-338 1.54-0.638 3.03-1.42 4.62-1.9 10.7-3.28 17-10.5 21.2-20.8 17.1-42.3 34.8-84.4 52.2-127 95.7-231 191-462 287-693 2.52-6.08 4.31-12.4 6.29-18.2" fill="#17679a"/></g></g></g></svg>
