<?xml version="1.0" encoding="UTF-8"?>
<!-- Created with Inkscape (http://www.inkscape.org/) -->
<svg width="275.216mm" height="99.022003mm" version="1.1" viewBox="0 0 275.21599 99.021996" xmlns="http://www.w3.org/2000/svg" xmlns:cc="http://creativecommons.org/ns#" xmlns:dc="http://purl.org/dc/elements/1.1/" xmlns:rdf="http://www.w3.org/1999/02/22-rdf-syntax-ns#"><defs><linearGradient id="b" x1="-1.3419588e-16" x2="0" y1="201.5116" y2="199.32001" gradientTransform="translate(7.0642043,26.608936)" gradientUnits="userSpaceOnUse"><stop stop-color="#17679a" offset="0"/><stop stop-color="#030000" offset="1"/></linearGradient><linearGradient id="a" x1="-1.3419588e-16" x2="0" y1="201.5116" y2="199.32001" gradientTransform="translate(151.97737,26.639969)" gradientUnits="userSpaceOnUse"><stop stop-color="#17679a" offset="0"/><stop stop-color="#030000" offset="1"/></linearGradient></defs><metadata><rdf:RDF><cc:Work rdf:about=""><dc:format>image/svg+xml</dc:format><dc:type rdf:resource="http://purl.org/dc/dcmitype/StillImage"/><dc:title/></cc:Work></rdf:RDF></metadata><g transform="translate(0,-197.97799)"><g fill="#17679a"><path d="m7.0642043 288.08896h44.6819217l8.598077 8.88h-53.2799987z" stroke-width=".07212715"/><path d="m7.0642043 252.56895h35.5199987l-8.88 8.88h-26.6399987z" stroke-width=".07200621"/><path d="m15.944204 217.04895 44.399999-0.031-9.961696 8.87999s-43.3183027 0.11602-43.3183027 0.031z" stroke-width=".07212742"/></g><path d="m15.943777 225.92895 4.27e-4 8.88-8.8799997 8.88v-17.76z" fill="url(#b)" opacity=".5"/><g fill="#17679a"><path d="m151.97737 288.11999h44.68192l8.59808 8.88h-53.28z" stroke-width=".07212715"/><path d="m151.97737 252.59998h35.52l-8.87999 8.88h-26.64001z" stroke-width=".07200622"/><path d="m160.85737 217.07998 44.4-0.031-9.9617 8.87999s-43.3183 0.11602-43.3183 0.031z" stroke-width=".07212742"/></g><path d="m160.85695 225.95998-8.87958 8.88v-8.88z" fill="url(#a)" opacity=".5"/><g fill="#17679a"><path d="m221.93566 288.08898h44.68192l8.59808 8.88h-53.28z" stroke-width=".07212715"/><path d="m221.93566 252.56897h35.52l-8.88 8.88h-26.64z" stroke-width=".07200623"/><path d="m230.81566 217.04897 44.4-0.031-8.88 8.911h-35.52l-8.88 8.88v-8.88001z" stroke-width=".07212742"/></g><path d="m15.944204 217.04895-8.8799997 8.88v17.76l8.8799997-8.88" fill="none" stroke="#0f0" stroke-width=".75"/><path d="m160.85737 217.07998-8.88 8.88v8.88l8.87958-8.88" fill="none" stroke="#f00" stroke-width=".75"/><g fill="#17679a"><path d="m79.855667 288.089h44.681923l8.59808 8.87999h-53.280003z" stroke-width=".07212715"/><path d="m79.855667 252.56899h35.520003l-8.88 8.87999h-26.640003z" stroke-width=".07200622"/><path d="m88.735667 217.04898 44.400003-0.031-9.9617 8.87999-34.438303 0.031v8.88l-8.88 8.88v-17.76003z" stroke-width=".07212742"/></g><g fill="#000000" letter-spacing="0px" stroke-width=".26458332" word-spacing="0px"><text x="-0.54492188" y="234.20425" font-family="sans-serif" style="line-height:1.25" xml:space="preserve"><tspan x="-0.54492188" y="234.20425" fill="#00ff00" font-family="Roboto" stroke-width=".26458332">2</tspan></text><g font-family="Roboto"><text x="143.93033" y="234.17854" style="line-height:1.25" xml:space="preserve"><tspan x="143.93033" y="234.17854" fill="#ff0000" font-family="Roboto" stroke-width=".26458332">1</tspan></text><text x="56.557747" y="206.97835" style="line-height:1.25" xml:space="preserve"><tspan x="56.557747" y="206.97835" fill="#00ff00" font-family="Roboto" stroke-width=".26458332">Good</tspan></text><text x="202.19698" y="207.78668" style="line-height:1.25" xml:space="preserve"><tspan x="202.19698" y="207.78668" fill="#ff0000" font-family="Roboto" stroke-width=".26458332">Bad</tspan></text><text x="213.88863" y="234.14751" style="line-height:1.25" xml:space="preserve"><tspan x="213.88863" y="234.14751" fill="#ff0000" font-family="Roboto" stroke-width=".26458332">1</tspan></text></g><text x="72.246536" y="234.20428" font-family="sans-serif" style="line-height:1.25" xml:space="preserve"><tspan x="72.246536" y="234.20428" fill="#00ff00" font-family="Roboto" stroke-width=".26458332">2</tspan></text></g><path d="m230.81566 217.04897-8.88 8.88v8.88l8.87958-8.88" fill="none" stroke="#f00" stroke-width=".75"/><path d="m88.735667 217.04898-8.88 8.88v17.75999l8.88-8.87999" fill="none" stroke="#0f0" stroke-width=".75"/></g></svg>
