<?xml version="1.0" encoding="UTF-8"?>
<!-- Created with Inkscape (http://www.inkscape.org/) -->
<svg width="213.12mm" height="88.558998mm" enable-background="new" version="1.1" viewBox="0 0 213.11998 88.558992" xmlns="http://www.w3.org/2000/svg" xmlns:cc="http://creativecommons.org/ns#" xmlns:dc="http://purl.org/dc/elements/1.1/" xmlns:rdf="http://www.w3.org/1999/02/22-rdf-syntax-ns#">
<defs>
<linearGradient id="f" x1="240.98361" x2="239.75999" y1="270.36002" y2="270.36002" gradientTransform="translate(-177.60007,-1.8831055e-5)" gradientUnits="userSpaceOnUse">
<stop stop-color="#17679a" offset="0"/>
<stop offset="1"/>
</linearGradient>
<linearGradient id="h" x1="241.28008" x2="239.75999" y1="225.96001" y2="225.96001" gradientTransform="translate(-177.60007,-1.8831055e-5)" gradientUnits="userSpaceOnUse">
<stop stop-color="#17679a" offset="0"/>
<stop stop-opacity=".97816592" offset="1"/>
</linearGradient>
<linearGradient id="d" x1="267.8967" x2="266.40024" y1="270.36002" y2="270.36002" gradientTransform="translate(-177.60007,-1.8831055e-5)" gradientUnits="userSpaceOnUse">
<stop stop-color="#17679a" offset="0"/>
<stop offset="1"/>
</linearGradient>
<linearGradient id="b" x1="108.6932" x2="106.56" y1="270.36047" y2="270.36047" gradientTransform="translate(-97.678996,-1.3831055e-5)" gradientUnits="userSpaceOnUse">
<stop stop-color="#17679a" offset="0"/>
<stop offset="1"/>
</linearGradient>
<linearGradient id="e" x1="240.98361" x2="239.75999" y1="270.36002" y2="270.36002" gradientTransform="translate(-62.160075,-2.3831055e-5)" gradientUnits="userSpaceOnUse">
<stop stop-color="#17679a" offset="0"/>
<stop offset="1"/>
</linearGradient>
<linearGradient id="g" x1="241.28008" x2="239.75999" y1="225.96001" y2="225.96001" gradientTransform="translate(-62.160075,-2.3831055e-5)" gradientUnits="userSpaceOnUse">
<stop stop-color="#17679a" offset="0"/>
<stop stop-opacity=".97816592" offset="1"/>
</linearGradient>
<linearGradient id="c" x1="267.8967" x2="266.40024" y1="270.36002" y2="270.36002" gradientTransform="translate(-62.160075,-2.3831055e-5)" gradientUnits="userSpaceOnUse">
<stop stop-color="#17679a" offset="0"/>
<stop offset="1"/>
</linearGradient>
<linearGradient id="a" x1="108.6932" x2="106.56" y1="270.36047" y2="270.36047" gradientTransform="translate(17.759994,-3.6783105e-4)" gradientUnits="userSpaceOnUse">
<stop stop-color="#17679a" offset="0"/>
<stop offset="1"/>
</linearGradient>
<filter id="i" color-interpolation-filters="sRGB">
<feBlend in2="BackgroundImage" mode="multiply"/>
</filter>
</defs>
<metadata>
<rdf:RDF>
<cc:Work rdf:about="">
<dc:format>image/svg+xml</dc:format>
<dc:type rdf:resource="http://purl.org/dc/dcmitype/StillImage"/>
<dc:title/>
</cc:Work>
</rdf:RDF>
</metadata>
<g transform="translate(0,-208.441)" filter="url(#i)">
<text x="35.593945" y="216.37822" fill="#000000" font-family="Roboto" font-size="10.58333302px" letter-spacing="0px" stroke-width=".26458332" word-spacing="0px" style="line-height:1.25" xml:space="preserve"><tspan x="35.593945" y="216.37822" fill="#00ff00" font-family="Roboto" stroke-width=".26458332">Good</tspan></text>
<text x="153.44229" y="216.56215" fill="#000000" font-family="Roboto" font-size="10.58333302px" letter-spacing="0px" stroke-width=".26458332" word-spacing="0px" style="line-height:1.25" xml:space="preserve"><tspan x="153.44229" y="216.56215" fill="#ff0000" font-family="Roboto" stroke-width=".26458332">Bad</tspan></text>
<path d="m26.641002 234.84 8.880001-8.87999v62.15999l-8.880001 8.88c0.155191-20.52298 0.0308-41.48177 0-62.16z" fill="#17679a" stroke-width=".0721404"/>
<path d="m8.8810032 261.48045 8.8799998-5.3e-4v8.88043l-8.8799998 1e-5z" fill="url(#b)" opacity=".5"/>
<g fill="#17679a">
<path d="m62.159919 225.95999v37.00001s1.5e-4 7.4 0 7.4l-8.88-7.4v-29.60001z" stroke-width=".06838753"/>
<path d="m79.919719 225.95999 8.8802 7.39994 2.4e-4 37.00007s-8.879941-8.87999-8.880161-8.88z" stroke-width=".06838753"/>
<path d="m0 225.96 8.8810032 7.4v37.00001l-8.8800032-7.4z" stroke-width=".06838761"/>
</g>
<g stroke-width=".07330012">
<path d="m88.799919 261.48001h8.88l-8.88 8.88043z" fill="url(#d)" opacity=".5"/>
<path d="m62.160329 225.96001 8.87915-2.9e-4 5.3e-4 8.88028h-8.88001z" fill="url(#h)" opacity=".5"/>
<path d="m62.159919 261.48h8.88l-8.88 8.88001s-1.5e-4 -8.88001 0-8.88001z" fill="url(#f)" opacity=".5"/>
</g>
<path d="m142.08 243.72 8.88-17.76034v62.15999l-8.88 8.88c0.15519-20.52298 0.0308-32.60142 0-53.27965z" fill="#17679a" stroke-width=".0721404"/>
<path d="m124.32 261.4801 8.88-5.3e-4v8.88043l-8.88 1e-5z" fill="url(#a)" opacity=".5"/>
<g fill="#17679a">
<path d="m177.59993 225.95999 7e-5 8.88001-4.02244 13.02259 4.02237 13.61741s1.5e-4 8.88 0 8.88l-8.88-7.4v-29.60001z" stroke-width=".06838753"/>
<path d="m195.35973 225.95999c3.58845 0.0192 8.8967 3.47808 8.8802 7.39994l2.4e-4 37.00007s-8.87995-8.87999-8.88017-8.88z" stroke-width=".06838753"/>
<path d="m115.439 225.95965 4.10784 8.72359 4.77316-1.32359v37.00001l-8.88-7.4z" stroke-width=".06838761"/>
</g>
<g stroke-width=".07330012">
<path d="m204.23993 261.48001h8.88l-8.88 8.88043z" fill="url(#c)" opacity=".5"/>
<path d="m177.60034 225.96001 8.87915-2.9e-4 5.3e-4 8.88027-8.88002 1e-5z" fill="url(#g)" opacity=".5"/>
<path d="m177.59993 261.48h8.88l-8.88 8.88001s-1.5e-4 -8.88001 0-8.88001z" fill="url(#e)" opacity=".5"/>
</g>
<g fill="none" stroke-width=".75">
<path d="m115.439 225.95965 4.10784 8.72359 4.77316-1.32359" stroke="#f00"/>
<path d="m195.32666 225.97653c5.9992 0.11705 8.89088 4.28982 8.91427 8.86346" stroke="#d80000"/>
<path d="m150.96 225.96-8.88001 17.76" stroke="#e80000"/>
<path d="m177.6 234.84-4.02244 13.02259 4.02237 13.61741" stroke="#f00"/>
</g>
</g>
</svg>
